PublicSans-Black.ufo
<glyph name="exclam" format="2">
  <advance width="620"/>
  <unicode hex="0021"/>
  <outline>
    <contour>
      <point x="500" y="384" type="line"/>
      <point x="90" y="384" type="line"/>
      <point x="90" y="0" type="line"/>
      <point x="500" y="0" type="line"/>
    </contour>
    <contour>
      <point x="520" y="1446" type="line"/>
      <point x="70" y="1446" type="line"/>
      <point x="180" y="518" type="line"/>
      <point x="418" y="518" type="line"/>
    </contour>
  </outline>
</glyph>
<glyph name="parenleft" format="2">
  <advance width="722"/>
  <unicode hex="0028"/>
  <outline>
    <contour>
      <point x="662" y="1446" type="curve"/>
      <point x="384" y="1446" type="line"/>
      <point x="212" y="1196"/>
      <point x="100" y="890"/>
      <point x="100" y="556" type="curve" smooth="yes"/>
      <point x="100" y="212"/>
      <point x="216" y="-40"/>
      <point x="386" y="-322" type="curve"/>
      <point x="662" y="-322" type="line"/>
      <point x="516" y="-18"/>
      <point x="436" y="248"/>
      <point x="436" y="554" type="curve" smooth="yes"/>
      <point x="436" y="874"/>
      <point x="522" y="1184"/>
    </contour>
  </outline>
</glyph>
<glyph name="hyphen" format="2">
  <advance width="814"/>
  <unicode hex="002D"/>
  <outline>
    <contour>
      <point x="697" y="650" type="line"/>
      <point x="117" y="650" type="line"/>
      <point x="117" y="376" type="line"/>
      <point x="697" y="376" type="line"/>
    </contour>
  </outline>
</glyph>
<glyph name="period" format="2">
  <advance width="620"/>
  <unicode hex="002E"/>
  <outline>
    <contour>
      <point x="90" y="0" type="line"/>
      <point x="500" y="0" type="line"/>
      <point x="500" y="392" type="line"/>
      <point x="90" y="392" type="line"/>
    </contour>
  </outline>
</glyph>
<glyph name="slash" format="2">
  <advance width="818"/>
  <unicode hex="002F"/>
  <outline>
    <contour>
      <point x="20" y="0" type="line"/>
      <point x="278" y="0" type="line"/>
      <point x="788" y="1446" type="line"/>
      <point x="530" y="1446" type="line"/>
    </contour>
  </outline>
</glyph>
<glyph name="zero" format="2">
  <advance width="1349"/>
  <unicode hex="0030"/>
  <outline>
    <contour>
      <point x="677" y="1466" type="curve" smooth="yes"/>
      <point x="303" y="1466"/>
      <point x="80" y="1190"/>
      <point x="80" y="720" type="curve" smooth="yes"/>
      <point x="80" y="252"/>
      <point x="297" y="-22"/>
      <point x="677" y="-22" type="curve" smooth="yes"/>
      <point x="1055" y="-22"/>
      <point x="1269" y="252"/>
      <point x="1269" y="720" type="curve" smooth="yes"/>
      <point x="1269" y="1190"/>
      <point x="1049" y="1466"/>
    </contour>
    <contour>
      <point x="675" y="288" type="curve" smooth="yes"/>
      <point x="532" y="288"/>
      <point x="482" y="404"/>
      <point x="482" y="718" type="curve" smooth="yes"/>
      <point x="482" y="1042"/>
      <point x="534" y="1168"/>
      <point x="675" y="1168" type="curve" smooth="yes"/>
      <point x="815" y="1168"/>
      <point x="866" y="1044"/>
      <point x="866" y="718" type="curve" smooth="yes"/>
      <point x="866" y="402"/>
      <point x="818" y="288"/>
    </contour>
  </outline>
</glyph>
<glyph name="four" format="2">
  <advance width="1363"/>
  <unicode hex="0034"/>
  <guideline x="238" y="297" angle="53.388"/>
  <outline>
    <contour>
      <point x="726" y="1446" type="line"/>
      <point x="80" y="580" type="line"/>
      <point x="80" y="276" type="line"/>
      <point x="732" y="276" type="line"/>
      <point x="731" y="0" type="line"/>
      <point x="1102" y="0" type="line"/>
      <point x="1102" y="276" type="line"/>
      <point x="1310" y="276" type="line"/>
      <point x="1310" y="594" type="line"/>
      <point x="1102" y="594" type="line"/>
      <point x="1102" y="1446" type="line"/>
    </contour>
    <contour>
      <point x="434" y="594" type="line"/>
      <point x="736" y="996" type="line"/>
      <point x="736" y="594" type="line"/>
    </contour>
  </outline>
</glyph>
<glyph name="colon" format="2">
  <advance width="620"/>
  <unicode hex="003A"/>
  <outline>
    <contour>
      <point x="500" y="1024" type="line"/>
      <point x="90" y="1024" type="line"/>
      <point x="90" y="640" type="line"/>
      <point x="500" y="640" type="line"/>
    </contour>
    <contour>
      <point x="500" y="390" type="line"/>
      <point x="90" y="390" type="line"/>
      <point x="90" y="6" type="line"/>
      <point x="500" y="6" type="line"/>
    </contour>
  </outline>
</glyph>
<glyph name="semicolon" format="2">
  <advance width="626"/>
  <unicode hex="003B"/>
  <outline>
    <contour>
      <point x="90" y="-330" type="line"/>
      <point x="244" y="-330" type="line"/>
      <point x="506" y="44" type="line"/>
      <point x="506" y="386" type="line"/>
      <point x="96" y="386" type="line"/>
      <point x="96" y="0" type="line"/>
      <point x="236" y="0" type="line"/>
    </contour>
    <contour>
      <point x="96" y="626" type="line"/>
      <point x="506" y="626" type="line"/>
      <point x="506" y="1018" type="line"/>
      <point x="96" y="1018" type="line"/>
    </contour>
  </outline>
</glyph>
<glyph name="less" format="2">
  <advance width="1212"/>
  <unicode hex="003C"/>
  <outline>
    <contour>
      <point x="1102" y="468" type="line"/>
      <point x="522" y="678" type="line"/>
      <point x="1102" y="898" type="line"/>
      <point x="1102" y="1218" type="line"/>
      <point x="110" y="836" type="line"/>
      <point x="110" y="526" type="line"/>
      <point x="1102" y="144" type="line"/>
    </contour>
  </outline>
</glyph>
<glyph name="H" format="2">
  <advance width="1547"/>
  <unicode hex="0048"/>
  <anchor x="774" y="0" name="bottom"/>
  <anchor x="777" y="1446" name="top"/>
  <outline>
    <contour>
      <point x="1023" y="580" type="line"/>
      <point x="1023" y="0" type="line"/>
      <point x="1412" y="0" type="line"/>
      <point x="1412" y="1446" type="line"/>
      <point x="1023" y="1446" type="line"/>
      <point x="1023" y="898" type="line"/>
      <point x="524" y="898" type="line"/>
      <point x="524" y="1446" type="line"/>
      <point x="135" y="1446" type="line"/>
      <point x="135" y="0" type="line"/>
      <point x="524" y="0" type="line"/>
      <point x="524" y="580" type="line"/>
    </contour>
  </outline>
</glyph>
<glyph name="I" format="2">
  <advance width="659"/>
  <unicode hex="0049"/>
  <anchor x="351" y="0" name="bottom"/>
  <anchor x="477" y="6" name="ogonek"/>
  <anchor x="331" y="1446" name="top"/>
  <outline>
    <contour>
      <point x="135" y="1446" type="line"/>
      <point x="135" y="0" type="line"/>
      <point x="524" y="0" type="line"/>
      <point x="524" y="1446" type="line"/>
    </contour>
  </outline>
</glyph>
<glyph name="K" format="2">
  <advance width="1497"/>
  <unicode hex="004B"/>
  <guideline x="1021" y="915" angle="54.4985"/>
  <guideline x="356" y="283" angle="297.1195"/>
  <anchor x="719" y="0" name="bottom"/>
  <anchor x="745" y="1446" name="top"/>
  <outline>
    <contour>
      <point x="1459" y="0" type="line"/>
      <point x="997" y="894" type="line"/>
      <point x="1394" y="1446" type="line"/>
      <point x="957" y="1446" type="line"/>
      <point x="539" y="862" type="line"/>
      <point x="539" y="1446" type="line"/>
      <point x="135" y="1446" type="line"/>
      <point x="135" y="0" type="line"/>
      <point x="539" y="0" type="line"/>
      <point x="539" y="378" type="line"/>
      <point x="719" y="610" type="line"/>
      <point x="1041" y="0" type="line"/>
    </contour>
  </outline>
</glyph>
<glyph name="S" format="2">
  <advance width="1424"/>
  <unicode hex="0053"/>
  <guideline x="657" y="302" angle="214.3236"/>
  <anchor x="720" y="0" name="bottom"/>
  <anchor x="720" y="1446" name="top"/>
  <outline>
    <contour>
      <point x="726" y="-20" type="curve" smooth="yes"/>
      <point x="1081" y="-20"/>
      <point x="1347" y="164"/>
      <point x="1347" y="410" type="curve" smooth="yes"/>
      <point x="1347" y="554"/>
      <point x="1323" y="814"/>
      <point x="911" y="886" type="curve" smooth="yes"/>
      <point x="689" y="924" type="line" smooth="yes"/>
      <point x="565" y="946"/>
      <point x="534" y="984"/>
      <point x="534" y="1050" type="curve" smooth="yes"/>
      <point x="534" y="1102"/>
      <point x="579" y="1164"/>
      <point x="728" y="1164" type="curve" smooth="yes"/>
      <point x="861" y="1164"/>
      <point x="940" y="1120"/>
      <point x="952" y="1008" type="curve"/>
      <point x="1338" y="1008" type="line"/>
      <point x="1332" y="1276"/>
      <point x="1116" y="1464"/>
      <point x="720" y="1464" type="curve" smooth="yes"/>
      <point x="392" y="1464"/>
      <point x="122" y="1294"/>
      <point x="126" y="1002" type="curve" smooth="yes"/>
      <point x="131" y="756"/>
      <point x="277" y="612"/>
      <point x="499" y="576" type="curve" smooth="yes"/>
      <point x="720" y="538" type="line" smooth="yes"/>
      <point x="840" y="518"/>
      <point x="958" y="498"/>
      <point x="958" y="410" type="curve" smooth="yes"/>
      <point x="958" y="308"/>
      <point x="843" y="278"/>
      <point x="724" y="278" type="curve" smooth="yes"/>
      <point x="591" y="278"/>
      <point x="503" y="338"/>
      <point x="481" y="440" type="curve"/>
      <point x="85" y="440" type="line"/>
      <point x="110" y="128"/>
      <point x="428" y="-20"/>
    </contour>
  </outline>
</glyph>
<glyph name="W" format="2">
  <advance width="1964"/>
  <unicode hex="0057"/>
  <guideline x="214" y="670" angle="286.06"/>
  <guideline x="417" y="670" angle="74.3834"/>
  <anchor x="982" y="1446" name="top"/>
  <outline>
    <contour>
      <point x="1934" y="1446" type="line"/>
      <point x="1558" y="1446" type="line"/>
      <point x="1342" y="670" type="line"/>
      <point x="1118" y="1446" type="line"/>
      <point x="846" y="1446" type="line"/>
      <point x="630" y="670" type="line"/>
      <point x="406" y="1446" type="line"/>
      <point x="30" y="1446" type="line"/>
      <point x="466" y="0" type="line"/>
      <point x="752" y="0" type="line"/>
      <point x="982" y="786" type="line"/>
      <point x="1212" y="0" type="line"/>
      <point x="1502" y="0" type="line"/>
    </contour>
  </outline>
</glyph>
<glyph name="Y" format="2">
  <advance width="1444"/>
  <unicode hex="0059"/>
  <guideline x="492" y="670" angle="58.823"/>
  <anchor x="721" y="0" name="bottom"/>
  <anchor x="771" y="1446" name="top"/>
  <outline>
    <contour>
      <point x="1429" y="1446" type="line"/>
      <point x="1004" y="1446" type="line"/>
      <point x="721" y="932" type="line"/>
      <point x="435" y="1446" type="line"/>
      <point x="15" y="1446" type="line"/>
      <point x="524" y="602" type="line"/>
      <point x="524" y="0" type="line"/>
      <point x="914" y="0" type="line"/>
      <point x="914" y="602" type="line"/>
    </contour>
  </outline>
</glyph>
<glyph name="bracketleft" format="2">
  <advance width="736"/>
  <unicode hex="005B"/>
  <outline>
    <contour>
      <point x="120" y="1446" type="line"/>
      <point x="120" y="-322" type="line"/>
      <point x="656" y="-322" type="line"/>
      <point x="656" y="-114" type="line"/>
      <point x="430" y="-114" type="line"/>
      <point x="430" y="1238" type="line"/>
      <point x="656" y="1238" type="line"/>
      <point x="656" y="1446" type="line"/>
    </contour>
  </outline>
</glyph>
<glyph name="i" format="2">
  <advance width="590"/>
  <unicode hex="0069"/>
  <anchor x="295" y="0" name="bottom"/>
  <outline>
    <contour>
      <point x="480" y="1034" type="line"/>
      <point x="110" y="1034" type="line"/>
      <point x="110" y="0" type="line"/>
      <point x="480" y="0" type="line"/>
    </contour>
    <contour>
      <point x="480" y="1446" type="line"/>
      <point x="110" y="1446" type="line"/>
      <point x="110" y="1118" type="line"/>
      <point x="480" y="1118" type="line"/>
    </contour>
  </outline>
</glyph>
<glyph name="k" format="2">
  <advance width="1192"/>
  <unicode hex="006B"/>
  <guideline x="239" y="343" angle="50.4927"/>
  <guideline x="380" y="0" angle="122"/>
  <anchor x="606" y="0" name="bottom"/>
  <outline>
    <contour>
      <point x="1182" y="0" type="line"/>
      <point x="802" y="606" type="line"/>
      <point x="1180" y="1034" type="line"/>
      <point x="773" y="1034" type="line"/>
      <point x="489" y="686" type="line"/>
      <point x="489" y="1486" type="line"/>
      <point x="100" y="1486" type="line"/>
      <point x="100" y="0" type="line"/>
      <point x="489" y="0" type="line"/>
      <point x="489" y="292" type="line"/>
      <point x="565" y="380" type="line"/>
      <point x="804" y="0" type="line"/>
    </contour>
  </outline>
</glyph>
<glyph name="t" format="2">
  <advance width="882"/>
  <unicode hex="0074"/>
  <guideline x="151" y="616" angle="0"/>
  <anchor x="506" y="18" name="bottom"/>
  <anchor x="797" y="1446" name="caron"/>
  <anchor x="434" y="516" name="center"/>
  <outline>
    <contour>
      <point x="812" y="770" type="line"/>
      <point x="812" y="1036" type="line"/>
      <point x="586" y="1036" type="line"/>
      <point x="586" y="1356" type="line"/>
      <point x="312" y="1356" type="line"/>
      <point x="212" y="1034" type="line"/>
      <point x="30" y="1034" type="line"/>
      <point x="30" y="770" type="line"/>
      <point x="198" y="770" type="line"/>
      <point x="198" y="284" type="line" smooth="yes"/>
      <point x="198" y="118"/>
      <point x="280" y="-16"/>
      <point x="606" y="-16" type="curve" smooth="yes"/>
      <point x="730" y="-16"/>
      <point x="784" y="2"/>
      <point x="812" y="16" type="curve"/>
      <point x="812" y="246" type="line"/>
      <point x="650" y="246" type="line" smooth="yes"/>
      <point x="616" y="246"/>
      <point x="588" y="256"/>
      <point x="588" y="302" type="curve" smooth="yes"/>
      <point x="586" y="770" type="line"/>
    </contour>
  </outline>
</glyph>
<glyph name="x" format="2">
  <advance width="1218"/>
  <unicode hex="0078"/>
  <guideline x="225" y="478" angle="306.2069"/>
  <guideline x="37" y="0" angle="53.793"/>
  <outline>
    <contour>
      <point x="1208" y="0" type="line"/>
      <point x="812" y="540" type="line"/>
      <point x="1176" y="1034" type="line"/>
      <point x="776" y="1034" type="line"/>
      <point x="612" y="810" type="line"/>
      <point x="446" y="1034" type="line"/>
      <point x="46" y="1034" type="line"/>
      <point x="406" y="540" type="line"/>
      <point x="10" y="0" type="line"/>
      <point x="410" y="0" type="line"/>
      <point x="610" y="274" type="line"/>
      <point x="808" y="0" type="line"/>
    </contour>
  </outline>
</glyph>
<glyph name="y" format="2">
  <advance width="1177"/>
  <unicode hex="0079"/>
  <guideline x="406" y="446" angle="70.244"/>
  <guideline x="139" y="426" angle="109.3978"/>
  <anchor x="586" y="1034" name="top"/>
  <outline>
    <contour>
      <point x="315" y="-330" type="curve" smooth="yes"/>
      <point x="493" y="-330"/>
      <point x="632" y="-266"/>
      <point x="766" y="60" type="curve" smooth="yes"/>
      <point x="1170" y="1034" type="line"/>
      <point x="789" y="1034" type="line"/>
      <point x="586" y="472" type="line"/>
      <point x="390" y="1034" type="line"/>
      <point x="8" y="1034" type="line"/>
      <point x="409" y="60" type="line"/>
      <point x="405" y="40" type="line"/>
      <point x="401" y="28"/>
      <point x="392" y="-62"/>
      <point x="189" y="-46" type="curve" smooth="yes"/>
      <point x="90" y="-40" type="line"/>
      <point x="90" y="-286" type="line" smooth="yes"/>
      <point x="90" y="-286"/>
      <point x="155" y="-330"/>
    </contour>
  </outline>
</glyph>
<glyph name="z" format="2">
  <advance width="1021"/>
  <unicode hex="007A"/>
  <guideline x="70" y="206" angle="231.7767"/>
  <guideline x="691" y="838" angle="90"/>
  <anchor x="510" y="0" name="bottom"/>
  <anchor x="510" y="1034" name="top"/>
  <outline>
    <contour>
      <point x="50" y="0" type="line"/>
      <point x="971" y="0" type="line"/>
      <point x="971" y="266" type="line"/>
      <point x="524" y="266" type="line"/>
      <point x="969" y="828" type="line"/>
      <point x="969" y="1034" type="line"/>
      <point x="77" y="1034" type="line"/>
      <point x="77" y="768" type="line"/>
      <point x="494" y="768" type="line"/>
      <point x="50" y="206" type="line"/>
    </contour>
  </outline>
</glyph>
<glyph name="degree" format="2">
  <advance width="968"/>
  <unicode hex="00B0"/>
  <outline>
    <contour>
      <point x="828" y="1316" type="curve" smooth="yes"/>
      <point x="828" y="1522"/>
      <point x="676" y="1672"/>
      <point x="474" y="1672" type="curve" smooth="yes"/>
      <point x="270" y="1672"/>
      <point x="120" y="1522"/>
      <point x="120" y="1316" type="curve" smooth="yes"/>
      <point x="120" y="1108"/>
      <point x="270" y="962"/>
      <point x="474" y="962" type="curve" smooth="yes"/>
      <point x="676" y="962"/>
      <point x="828" y="1108"/>
    </contour>
    <contour>
      <point x="610" y="1314" type="curve" smooth="yes"/>
      <point x="610" y="1228"/>
      <point x="556" y="1168"/>
      <point x="472" y="1168" type="curve" smooth="yes"/>
      <point x="386" y="1168"/>
      <point x="334" y="1228"/>
      <point x="332" y="1314" type="curve" smooth="yes"/>
      <point x="330" y="1398"/>
      <point x="386" y="1458"/>
      <point x="470" y="1458" type="curve" smooth="yes"/>
      <point x="556" y="1458"/>
      <point x="610" y="1398"/>
    </contour>
  </outline>
</glyph>
<glyph name="plusminus" format="2">
  <advance width="1238"/>
  <unicode hex="00B1"/>
  <outline>
    <contour>
      <point x="1128" y="304" type="line"/>
      <point x="110" y="304" type="line"/>
      <point x="110" y="30" type="line"/>
      <point x="1128" y="30" type="line"/>
    </contour>
    <contour>
      <point x="1128" y="1052" type="line"/>
      <point x="110" y="1052" type="line"/>
      <point x="110" y="776" type="line"/>
      <point x="1128" y="776" type="line"/>
    </contour>
    <contour>
      <point x="758" y="406" type="line"/>
      <point x="758" y="1424" type="line"/>
      <point x="482" y="1424" type="line"/>
      <point x="482" y="406" type="line"/>
    </contour>
  </outline>
</glyph>
<glyph name="guillemetright" format="2">
  <advance width="1080"/>
  <unicode hex="00BB"/>
  <outline>
    <contour>
      <point x="248" y="502" type="line"/>
      <point x="120" y="118" type="line"/>
      <point x="320" y="118" type="line"/>
      <point x="534" y="502" type="line"/>
      <point x="322" y="902" type="line"/>
      <point x="120" y="902" type="line"/>
    </contour>
    <contour>
      <point x="654" y="502" type="line"/>
      <point x="524" y="118" type="line"/>
      <point x="726" y="118" type="line"/>
      <point x="940" y="502" type="line"/>
      <point x="728" y="902" type="line"/>
      <point x="524" y="902" type="line"/>
    </contour>
  </outline>
</glyph>
<glyph name="Eth" format="2">
  <advance width="1574"/>
  <unicode hex="00D0"/>
  <anchor x="791" y="0" name="bottom"/>
  <anchor x="829" y="724" name="center"/>
  <anchor x="829" y="1446" name="top"/>
  <outline>
    <contour>
      <point x="866" y="851" type="line"/>
      <point x="70" y="851" type="line"/>
      <point x="70" y="577" type="line"/>
      <point x="866" y="577" type="line"/>
    </contour>
    <component base="D" xOffset="86"/>
  </outline>
</glyph>
<glyph name="multiply" format="2">
  <advance width="1220"/>
  <unicode hex="00D7"/>
  <outline>
    <contour>
      <point x="1106" y="426" type="line"/>
      <point x="302" y="1228" type="line"/>
      <point x="110" y="1032" type="line"/>
      <point x="910" y="230" type="line"/>
    </contour>
    <contour>
      <point x="304" y="230" type="line"/>
      <point x="1110" y="1032" type="line"/>
      <point x="914" y="1228" type="line"/>
      <point x="112" y="426" type="line"/>
    </contour>
  </outline>
</glyph>
<glyph name="Thorn" format="2">
  <advance width="1416"/>
  <unicode hex="00DE"/>
  <outline>
    <contour>
      <point x="1356" y="727" type="curve" smooth="yes"/>
      <point x="1356" y="1032"/>
      <point x="1118" y="1186"/>
      <point x="788" y="1186" type="curve" smooth="yes"/>
      <point x="524" y="1186" type="line"/>
      <point x="524" y="1446" type="line"/>
      <point x="135" y="1446" type="line"/>
      <point x="135" y="0" type="line"/>
      <point x="524" y="0" type="line"/>
      <point x="524" y="276" type="line"/>
      <point x="788" y="276" type="line" smooth="yes"/>
      <point x="1118" y="276"/>
      <point x="1356" y="444"/>
    </contour>
    <contour>
      <point x="950" y="727" type="curve" smooth="yes"/>
      <point x="950" y="637"/>
      <point x="853" y="588"/>
      <point x="788" y="588" type="curve" smooth="yes"/>
      <point x="524" y="588" type="line"/>
      <point x="524" y="875" type="line"/>
      <point x="788" y="874" type="line" smooth="yes"/>
      <point x="853" y="874"/>
      <point x="950" y="817"/>
    </contour>
  </outline>
</glyph>
<glyph name="ae" format="2">
  <advance width="1826"/>
  <unicode hex="00E6"/>
  <anchor x="597" y="0" name="bottom"/>
  <anchor x="1011" y="20" name="ogonek"/>
  <anchor x="856" y="1034" name="top"/>
  <outline>
    <contour>
      <point x="423" y="-20" type="curve" smooth="yes"/>
      <point x="671" y="-20"/>
      <point x="784" y="58"/>
      <point x="836" y="197" type="curve"/>
      <point x="1068" y="732" type="line"/>
      <point x="1068" y="922"/>
      <point x="959" y="1054"/>
      <point x="599" y="1054" type="curve" smooth="yes"/>
      <point x="333" y="1054"/>
      <point x="117" y="956"/>
      <point x="106" y="712" type="curve"/>
      <point x="421" y="712" type="line"/>
      <point x="453" y="782"/>
      <point x="528" y="800"/>
      <point x="581" y="802" type="curve" smooth="yes"/>
      <point x="659" y="804"/>
      <point x="696" y="774"/>
      <point x="696" y="708" type="curve" smooth="yes"/>
      <point x="696" y="664" type="line"/>
      <point x="616" y="664" type="line" smooth="yes"/>
      <point x="240" y="664"/>
      <point x="66" y="534"/>
      <point x="66" y="310" type="curve" smooth="yes"/>
      <point x="66" y="96"/>
      <point x="228" y="-20"/>
    </contour>
    <contour>
      <point x="560" y="226" type="curve" smooth="yes"/>
      <point x="493" y="226"/>
      <point x="431" y="272"/>
      <point x="431" y="350" type="curve" smooth="yes"/>
      <point x="431" y="452"/>
      <point x="572" y="480"/>
      <point x="633" y="480" type="curve" smooth="yes"/>
      <point x="696" y="480" type="line"/>
      <point x="696" y="350" type="line"/>
      <point x="694" y="284"/>
      <point x="635" y="226"/>
    </contour>
    <component base="e" xOffset="656"/>
  </outline>
</glyph>
<glyph name="gcommaaccent" format="2">
  <advance width="1268"/>
  <unicode hex="0123"/>
  <anchor x="554" y="1072" name="_top"/>
  <anchor x="616" y="1034" name="top"/>
  <outline>
    <contour>
      <point x="428" y="1168" type="line"/>
      <point x="680" y="1168" type="line"/>
      <point x="680" y="1368" type="line"/>
      <point x="558" y="1368" type="line"/>
      <point x="694" y="1552" type="line"/>
      <point x="562" y="1552" type="line"/>
      <point x="428" y="1384" type="line"/>
    </contour>
    <component base="g"/>
  </outline>
</glyph>
<glyph name="kgreenlandic" format="2">
  <advance width="1254"/>
  <unicode hex="0138"/>
  <outline>
    <contour>
      <point x="1244" y="0" type="line"/>
      <point x="884" y="700" type="line"/>
      <point x="1216" y="1034" type="line"/>
      <point x="834" y="1034" type="line"/>
      <point x="489" y="644" type="line"/>
      <point x="489" y="1034" type="line"/>
      <point x="100" y="1034" type="line"/>
      <point x="100" y="0" type="line"/>
      <point x="489" y="0" type="line"/>
      <point x="489" y="292" type="line"/>
      <point x="628" y="422" type="line"/>
      <point x="804" y="0" type="line"/>
    </contour>
  </outline>
</glyph>
<glyph name="lslash" format="2">
  <advance width="775"/>
  <unicode hex="0142"/>
  <anchor x="336" y="0" name="bottom"/>
  <anchor x="563" y="1458" name="caron"/>
  <anchor x="363" y="1530" name="top"/>
  <outline>
    <contour>
      <point x="702" y="1004" type="line"/>
      <point x="70" y="608" type="line"/>
      <point x="70" y="284" type="line"/>
      <point x="702" y="698" type="line"/>
    </contour>
    <component base="l" xOffset="70"/>
  </outline>
</glyph>
<glyph name="tbar" format="2">
  <advance width="940"/>
  <unicode hex="0167"/>
  <anchor x="527" y="18" name="bottom"/>
  <anchor x="818" y="1446" name="caron"/>
  <anchor x="455" y="516" name="center"/>
  <outline>
    <contour>
      <point x="765" y="660" type="line"/>
      <point x="40" y="660" type="line"/>
      <point x="40" y="450" type="line"/>
      <point x="765" y="450" type="line"/>
    </contour>
    <component base="t" xOffset="21"/>
  </outline>
</glyph>
<glyph name="circumflexcomb" format="2">
  <unicode hex="0302"/>
  <anchor x="432" y="1034" name="_top"/>
  <outline>
    <contour>
      <point x="554" y="1155" type="line"/>
      <point x="832" y="1155" type="line"/>
      <point x="564" y="1446" type="line"/>
      <point x="300" y="1446" type="line"/>
      <point x="24" y="1155" type="line"/>
      <point x="288" y="1155" type="line"/>
      <point x="430" y="1304" type="line"/>
    </contour>
  </outline>
</glyph>
<glyph name="macroncomb" format="2">
  <unicode hex="0304"/>
  <anchor x="442" y="1034" name="_top"/>
  <outline>
    <contour>
      <point x="842" y="1416" type="line"/>
      <point x="42" y="1416" type="line"/>
      <point x="42" y="1178" type="line"/>
      <point x="842" y="1178" type="line"/>
    </contour>
  </outline>
</glyph>
<glyph name="brevecomb" format="2">
  <unicode hex="0306"/>
  <anchor x="434" y="1034" name="_top"/>
  <outline>
    <contour>
      <point x="828" y="1446" type="curve"/>
      <point x="599" y="1446" type="line"/>
      <point x="579" y="1378"/>
      <point x="521" y="1330"/>
      <point x="434" y="1330" type="curve" smooth="yes"/>
      <point x="346" y="1330"/>
      <point x="289" y="1378"/>
      <point x="270" y="1446" type="curve"/>
      <point x="40" y="1446" type="line"/>
      <point x="79" y="1251"/>
      <point x="248" y="1156"/>
      <point x="434" y="1156" type="curve" smooth="yes"/>
      <point x="619" y="1156"/>
      <point x="789" y="1251"/>
    </contour>
  </outline>
</glyph>
<glyph name="dotaccentcomb" format="2">
  <unicode hex="0307"/>
  <anchor x="192" y="1034" name="_top"/>
  <outline>
    <contour>
      <point x="10" y="1155" type="line"/>
      <point x="372" y="1155" type="line"/>
      <point x="372" y="1446" type="line"/>
      <point x="10" y="1446" type="line"/>
    </contour>
  </outline>
</glyph>
<glyph name="dieresiscomb" format="2">
  <unicode hex="0308"/>
  <anchor x="459" y="1034" name="_top"/>
  <outline>
    <contour>
      <point x="546" y="1155" type="line"/>
      <point x="904" y="1155" type="line"/>
      <point x="908" y="1446" type="line"/>
      <point x="550" y="1446" type="line"/>
    </contour>
    <contour>
      <point x="10" y="1155" type="line"/>
      <point x="368" y="1155" type="line"/>
      <point x="372" y="1446" type="line"/>
      <point x="14" y="1446" type="line"/>
    </contour>
  </outline>
</glyph>
<glyph name="hookabovecomb" format="2">
  <unicode hex="0309"/>
  <guideline x="214" y="723" angle="33"/>
  <guideline x="324" y="750" angle="302.6992"/>
  <guideline x="256" y="657" angle="302.6992"/>
  <guideline x="307" y="737" angle="302.6992"/>
  <guideline x="234" y="691" angle="33"/>
  <guideline x="256" y="657" angle="33"/>
  <anchor x="564" y="1034" name="_top"/>
  <anchor x="464" y="1198" name="_topviet"/>
  <outline>
    <contour>
      <point x="420" y="1543" type="line"/>
      <point x="550" y="1627"/>
      <point x="696" y="1597"/>
      <point x="762" y="1493" type="curve" smooth="yes"/>
      <point x="841" y="1368"/>
      <point x="818" y="1243"/>
      <point x="668" y="1155" type="curve"/>
      <point x="586" y="1285" type="line"/>
      <point x="634" y="1315"/>
      <point x="650" y="1357"/>
      <point x="622" y="1403" type="curve" smooth="yes"/>
      <point x="600" y="1439"/>
      <point x="544" y="1445"/>
      <point x="502" y="1417" type="curve"/>
    </contour>
  </outline>
</glyph>
<glyph name="horncomb" format="2">
  <unicode hex="031B"/>
  <anchor x="0" y="880" name="_horn"/>
  <anchor x="212" y="1060" name="_topright"/>
  <anchor x="212" y="1060" name="topright"/>
  <outline>
    <contour>
      <point x="450" y="1278" type="curve"/>
      <point x="216" y="1278" type="line"/>
      <point x="196" y="1040"/>
      <point x="142" y="1056"/>
      <point x="0" y="1058" type="curve"/>
      <point x="0" y="880" type="line"/>
      <point x="358" y="840"/>
      <point x="446" y="952"/>
    </contour>
  </outline>
</glyph>
<glyph name="commaaccentcomb" format="2">
  <unicode hex="0326"/>
  <anchor x="169" y="0" name="_bottom"/>
  <outline>
    <contour>
      <point x="10" y="-495" type="line"/>
      <point x="138" y="-495" type="line"/>
      <point x="318" y="-271" type="line"/>
      <point x="318" y="-91" type="line"/>
      <point x="14" y="-91" type="line"/>
      <point x="14" y="-309" type="line"/>
      <point x="110" y="-323" type="line"/>
    </contour>
  </outline>
</glyph>
<glyph name="quoteright" format="2">
  <advance width="578"/>
  <unicode hex="2019"/>
  <outline>
    <contour>
      <point x="100" y="802" type="line"/>
      <point x="228" y="802" type="line"/>
      <point x="458" y="1148" type="line"/>
      <point x="458" y="1446" type="line"/>
      <point x="104" y="1446" type="line"/>
      <point x="104" y="1110" type="line"/>
      <point x="220" y="1096" type="line"/>
    </contour>
  </outline>
</glyph>
<glyph name="dagger" format="2">
  <advance width="1156"/>
  <unicode hex="2020"/>
  <outline>
    <contour>
      <point x="1046" y="1022" type="line"/>
      <point x="688" y="972" type="line"/>
      <point x="750" y="1446" type="line"/>
      <point x="384" y="1446" type="line"/>
      <point x="446" y="972" type="line"/>
      <point x="90" y="1022" type="line"/>
      <point x="90" y="694" type="line"/>
      <point x="458" y="750" type="line"/>
      <point x="388" y="-322" type="line"/>
      <point x="748" y="-322" type="line"/>
      <point x="676" y="750" type="line"/>
      <point x="1046" y="694" type="line"/>
    </contour>
  </outline>
</glyph>
<glyph name="naira" format="2">
  <advance width="1640"/>
  <unicode hex="20A6"/>
  <anchor x="901" y="0" name="bottom"/>
  <anchor x="901" y="1446" name="top"/>
  <outline>
    <contour>
      <point x="1600" y="1064" type="line"/>
      <point x="20" y="1064" type="line"/>
      <point x="20" y="888" type="line"/>
      <point x="1600" y="888" type="line"/>
    </contour>
    <contour>
      <point x="1600" y="596" type="line"/>
      <point x="20" y="596" type="line"/>
      <point x="20" y="420" type="line"/>
      <point x="1600" y="420" type="line"/>
    </contour>
    <component base="N" xOffset="94"/>
  </outline>
</glyph>
<glyph name="won" format="2">
  <advance width="2400"/>
  <unicode hex="20A9"/>
  <anchor x="1180" y="1446" name="top"/>
  <outline>
    <contour>
      <point x="2360" y="1318" type="line"/>
      <point x="20" y="1318" type="line"/>
      <point x="20" y="1122" type="line"/>
      <point x="2360" y="1122" type="line"/>
    </contour>
    <contour>
      <point x="2360" y="1006" type="line"/>
      <point x="20" y="1006" type="line"/>
      <point x="20" y="810" type="line"/>
      <point x="2360" y="810" type="line"/>
    </contour>
    <component base="W" xOffset="198"/>
  </outline>
</glyph>
<glyph name="increment" format="2">
  <advance width="1664"/>
  <unicode hex="2206"/>
  <guideline x="106" y="400" angle="239.873"/>
  <guideline x="887" y="0" angle="301.3682"/>
  <guideline x="426" y="290" angle="90"/>
  <outline>
    <contour>
      <point x="30" y="0" type="line"/>
      <point x="1634" y="0" type="line"/>
      <point x="852" y="1446" type="line"/>
    </contour>
    <contour>
      <point x="592" y="318" type="line"/>
      <point x="852" y="772" type="line"/>
      <point x="1090" y="318" type="line"/>
    </contour>
  </outline>
</glyph>
<glyph name="product" format="2">
  <advance width="1472"/>
  <unicode hex="220F"/>
  <outline>
    <contour>
      <point x="1412" y="1446" type="line"/>
      <point x="40" y="1446" type="line"/>
      <point x="40" y="1132" type="line"/>
      <point x="202" y="1132" type="line"/>
      <point x="202" y="0" type="line"/>
      <point x="600" y="0" type="line"/>
      <point x="600" y="1132" type="line"/>
      <point x="850" y="1132" type="line"/>
      <point x="850" y="0" type="line"/>
      <point x="1248" y="0" type="line"/>
      <point x="1248" y="1132" type="line"/>
      <point x="1412" y="1132" type="line"/>
    </contour>
  </outline>
</glyph>
<glyph name="summation" format="2">
  <advance width="1224"/>
  <unicode hex="2211"/>
  <outline>
    <contour>
      <point x="1144" y="0" type="line"/>
      <point x="1144" y="324" type="line"/>
      <point x="566" y="324" type="line"/>
      <point x="946" y="760" type="line"/>
      <point x="608" y="1140" type="line"/>
      <point x="1108" y="1140" type="line"/>
      <point x="1108" y="1446" type="line"/>
      <point x="80" y="1446" type="line"/>
      <point x="80" y="1190" type="line"/>
      <point x="464" y="714" type="line"/>
      <point x="60" y="228" type="line"/>
      <point x="60" y="0" type="line"/>
    </contour>
  </outline>
</glyph>
<glyph name="divisionslash" format="2">
  <advance width="1247"/>
  <unicode hex="2215"/>
  <outline>
    <contour>
      <point x="1167" y="1462" type="line"/>
      <point x="954" y="1462" type="line"/>
      <point x="80" y="-4" type="line"/>
      <point x="295" y="-8" type="line"/>
    </contour>
  </outline>
</glyph>
<glyph name="notequal" format="2">
  <advance width="1238"/>
  <unicode hex="2260"/>
  <outline>
    <contour>
      <point x="940" y="1332" type="line"/>
      <point x="766" y="1332" type="line"/>
      <point x="192" y="22" type="line"/>
      <point x="374" y="22" type="line"/>
    </contour>
    <component base="equal"/>
  </outline>
</glyph>
<glyph name="lozenge" format="2">
  <advance width="1234"/>
  <unicode hex="25CA"/>
  <outline>
    <contour>
      <point x="756" y="0" type="line"/>
      <point x="1144" y="728" type="line"/>
      <point x="766" y="1446" type="line"/>
      <point x="526" y="1446" type="line"/>
      <point x="140" y="724" type="line"/>
      <point x="518" y="0" type="line"/>
    </contour>
    <contour>
      <point x="644" y="1174" type="line"/>
      <point x="866" y="724" type="line"/>
      <point x="644" y="264" type="line"/>
      <point x="424" y="728" type="line"/>
    </contour>
  </outline>
</glyph>
<glyph name="__horn" format="2">
  <advance width="300"/>
  <anchor x="0" y="880" name="_horn"/>
  <anchor x="212" y="1060" name="_topright"/>
  <anchor x="212" y="1060" name="topright"/>
  <outline>
    <contour>
      <point x="450" y="1278" type="curve"/>
      <point x="216" y="1278" type="line"/>
      <point x="196" y="1040"/>
      <point x="142" y="1056"/>
      <point x="0" y="1058" type="curve"/>
      <point x="0" y="880" type="line"/>
      <point x="358" y="840"/>
      <point x="446" y="952"/>
    </contour>
  </outline>
</glyph>
<glyph name="_emdash" format="2">
  <advance width="2356"/>
  <outline>
    <contour>
      <point x="2005" y="630" type="line"/>
      <point x="352" y="630" type="line"/>
      <point x="352" y="356" type="line"/>
      <point x="2005" y="356" type="line"/>
    </contour>
  </outline>
</glyph>
<glyph name="_j-hook" format="2">
  <advance width="1200"/>
  <outline>
    <contour>
      <point x="740" y="458" type="curve" smooth="yes"/>
      <point x="740" y="636" type="line"/>
      <point x="350" y="636" type="line"/>
      <point x="350" y="558" type="line" smooth="yes"/>
      <point x="350" y="408"/>
      <point x="316" y="340"/>
      <point x="178" y="340" type="curve" smooth="yes"/>
      <point x="136" y="340"/>
      <point x="86" y="346"/>
      <point x="50" y="350" type="curve"/>
      <point x="50" y="0" type="line"/>
      <point x="110" y="-12"/>
      <point x="230" y="-20"/>
      <point x="312" y="-20" type="curve" smooth="yes"/>
      <point x="662" y="-20"/>
      <point x="740" y="138"/>
    </contour>
  </outline>
</glyph>
<glyph name=".notdef" format="2">
  <advance width="1262"/>
  <outline>
    <contour>
      <point x="1127" y="-266" type="curve"/>
      <point x="1127" y="1610" type="line" smooth="yes"/>
      <point x="1127" y="1636"/>
      <point x="1113" y="1652"/>
      <point x="1091" y="1652" type="curve" smooth="yes"/>
      <point x="173" y="1652" type="line" smooth="yes"/>
      <point x="151" y="1652"/>
      <point x="135" y="1636"/>
      <point x="135" y="1606" type="curve" smooth="yes"/>
      <point x="135" y="-274" type="line" smooth="yes"/>
      <point x="135" y="-306"/>
      <point x="146" y="-322"/>
      <point x="188" y="-322" type="curve" smooth="yes"/>
      <point x="1061" y="-322" type="line" smooth="yes"/>
      <point x="1106" y="-322"/>
      <point x="1127" y="-306"/>
    </contour>
    <contour>
      <point x="1024" y="-178" type="line"/>
      <point x="1024" y="-210"/>
      <point x="1007" y="-224"/>
      <point x="971" y="-224" type="curve" smooth="yes"/>
      <point x="281" y="-224" type="line" smooth="yes"/>
      <point x="247" y="-224"/>
      <point x="237" y="-210"/>
      <point x="237" y="-184" type="curve" smooth="yes"/>
      <point x="237" y="1518" type="line" smooth="yes"/>
      <point x="237" y="1540"/>
      <point x="251" y="1554"/>
      <point x="269" y="1554" type="curve" smooth="yes"/>
      <point x="995" y="1554" type="line" smooth="yes"/>
      <point x="1013" y="1554"/>
      <point x="1024" y="1540"/>
      <point x="1024" y="1520" type="curve" smooth="yes"/>
    </contour>
    <contour>
      <point x="971" y="-268" type="line"/>
      <point x="1087" y="-258" type="line"/>
      <point x="279" y="1624" type="line"/>
      <point x="177" y="1572" type="line"/>
    </contour>
  </outline>
</glyph>
<glyph name="_ringacute" format="2">
  <advance width="1464"/>
  <anchor x="734" y="1446" name="_top"/>
  <outline>
    <contour>
      <point x="734" y="1352" type="curve" smooth="yes"/>
      <point x="852" y="1352"/>
      <point x="948" y="1432"/>
      <point x="948" y="1552" type="curve" smooth="yes"/>
      <point x="948" y="1670"/>
      <point x="852" y="1754"/>
      <point x="734" y="1754" type="curve" smooth="yes"/>
      <point x="616" y="1754"/>
      <point x="520" y="1672"/>
      <point x="520" y="1556" type="curve" smooth="yes"/>
      <point x="520" y="1434"/>
      <point x="614" y="1352"/>
    </contour>
    <contour>
      <point x="732" y="1454" type="curve" smooth="yes"/>
      <point x="682" y="1454"/>
      <point x="636" y="1500"/>
      <point x="636" y="1550" type="curve" smooth="yes"/>
      <point x="636" y="1602"/>
      <point x="682" y="1642"/>
      <point x="732" y="1642" type="curve" smooth="yes"/>
      <point x="784" y="1642"/>
      <point x="826" y="1602"/>
      <point x="826" y="1550" type="curve" smooth="yes"/>
      <point x="826" y="1500"/>
      <point x="784" y="1454"/>
    </contour>
    <contour>
      <point x="650" y="1706" type="line"/>
      <point x="818" y="1706" type="line"/>
      <point x="890" y="1880" type="line"/>
      <point x="690" y="1880" type="line"/>
    </contour>
  </outline>
</glyph>
<glyph name="acutecomb.001" format="2">
  <anchor x="164" y="1034" name="_top"/>
  <outline>
    <contour>
      <point x="156" y="1446" type="line"/>
      <point x="10" y="1158" type="line"/>
      <point x="287" y="1155" type="line"/>
      <point x="519" y="1446" type="line"/>
    </contour>
  </outline>
</glyph>
<glyph name="acutecomb.viet" format="2">
  <anchor x="143" y="1034" name="_top"/>
  <outline>
    <contour>
      <point x="167" y="1433" type="line"/>
      <point x="10" y="1155" type="line"/>
      <point x="192" y="1155" type="line"/>
      <point x="439" y="1433" type="line"/>
    </contour>
  </outline>
</glyph>
<glyph name="colon_f_l_a_g_colon.liga" format="2">
  <advance width="2352"/>
  <outline>
    <contour>
      <point x="226" y="1404" type="line"/>
      <point x="2126" y="1404" type="line"/>
      <point x="2126" y="118" type="line"/>
      <point x="226" y="118" type="line"/>
    </contour>
    <contour>
      <point x="110" y="1522" type="line"/>
      <point x="110" y="2" type="line"/>
      <point x="2242" y="2" type="line"/>
      <point x="2242" y="1522" type="line"/>
    </contour>
    <contour>
      <point x="130" y="352" type="line"/>
      <point x="130" y="234" type="line"/>
      <point x="2214" y="234" type="line"/>
      <point x="2214" y="352" type="line"/>
    </contour>
    <contour>
      <point x="130" y="586" type="line"/>
      <point x="130" y="468" type="line"/>
      <point x="2214" y="468" type="line"/>
      <point x="2214" y="586" type="line"/>
    </contour>
    <contour>
      <point x="1046" y="820" type="line"/>
      <point x="1046" y="702" type="line"/>
      <point x="2214" y="702" type="line"/>
      <point x="2214" y="820" type="line"/>
    </contour>
    <contour>
      <point x="1046" y="1054" type="line"/>
      <point x="1046" y="936" type="line"/>
      <point x="2214" y="936" type="line"/>
      <point x="2214" y="1054" type="line"/>
    </contour>
    <contour>
      <point x="1046" y="1288" type="line"/>
      <point x="1046" y="1170" type="line"/>
      <point x="2214" y="1170" type="line"/>
      <point x="2214" y="1288" type="line"/>
    </contour>
    <contour>
      <point x="344" y="1288" type="line"/>
      <point x="344" y="1170" type="line"/>
      <point x="460" y="1170" type="line"/>
      <point x="460" y="1288" type="line"/>
    </contour>
    <contour>
      <point x="578" y="1170" type="line"/>
      <point x="578" y="1054" type="line"/>
      <point x="694" y="1054" type="line"/>
      <point x="694" y="1170" type="line"/>
    </contour>
    <contour>
      <point x="812" y="1288" type="line"/>
      <point x="812" y="1170" type="line"/>
      <point x="928" y="1170" type="line"/>
      <point x="928" y="1288" type="line"/>
    </contour>
    <contour>
      <point x="578" y="1170" type="line"/>
      <point x="578" y="1054" type="line"/>
      <point x="694" y="1054" type="line"/>
      <point x="694" y="1170" type="line"/>
    </contour>
    <contour>
      <point x="344" y="1054" type="line"/>
      <point x="344" y="936" type="line"/>
      <point x="460" y="936" type="line"/>
      <point x="460" y="1054" type="line"/>
    </contour>
    <contour>
      <point x="578" y="936" type="line"/>
      <point x="578" y="820" type="line"/>
      <point x="694" y="820" type="line"/>
      <point x="694" y="936" type="line"/>
    </contour>
    <contour>
      <point x="812" y="1054" type="line"/>
      <point x="812" y="936" type="line"/>
      <point x="928" y="936" type="line"/>
      <point x="928" y="1054" type="line"/>
    </contour>
    <contour>
      <point x="578" y="936" type="line"/>
      <point x="578" y="820" type="line"/>
      <point x="694" y="820" type="line"/>
      <point x="694" y="936" type="line"/>
    </contour>
    <contour>
      <point x="344" y="820" type="line"/>
      <point x="344" y="702" type="line"/>
      <point x="460" y="702" type="line"/>
      <point x="460" y="820" type="line"/>
    </contour>
    <contour>
      <point x="812" y="820" type="line"/>
      <point x="812" y="702" type="line"/>
      <point x="928" y="702" type="line"/>
      <point x="928" y="820" type="line"/>
    </contour>
  </outline>
</glyph>
<glyph name="colon_one_eight_F_colon.liga" format="2">
  <advance width="1580"/>
  <outline>
    <contour>
      <point x="764" y="742" type="curve" smooth="yes"/>
      <point x="708" y="742"/>
      <point x="662" y="698"/>
      <point x="662" y="640" type="curve" smooth="yes"/>
      <point x="662" y="584"/>
      <point x="708" y="538"/>
      <point x="764" y="538" type="curve" smooth="yes"/>
      <point x="822" y="538"/>
      <point x="866" y="584"/>
      <point x="866" y="640" type="curve" smooth="yes"/>
      <point x="866" y="698"/>
      <point x="822" y="742"/>
    </contour>
    <contour>
      <point x="52" y="1522" type="line" smooth="yes"/>
      <point x="38" y="1522"/>
      <point x="30" y="1514"/>
      <point x="30" y="1498" type="curve" smooth="yes"/>
      <point x="30" y="26" type="line" smooth="yes"/>
      <point x="30" y="8"/>
      <point x="38" y="0"/>
      <point x="52" y="0" type="curve" smooth="yes"/>
      <point x="1528" y="0" type="line" smooth="yes"/>
      <point x="1540" y="0"/>
      <point x="1550" y="10"/>
      <point x="1550" y="26" type="curve" smooth="yes"/>
      <point x="1550" y="1498" type="line" smooth="yes"/>
      <point x="1550" y="1514"/>
      <point x="1542" y="1522"/>
      <point x="1528" y="1522" type="curve" smooth="yes"/>
    </contour>
    <contour>
      <point x="508" y="486" type="line" smooth="yes"/>
      <point x="508" y="480"/>
      <point x="506" y="478"/>
      <point x="500" y="478" type="curve" smooth="yes"/>
      <point x="444" y="478" type="line" smooth="yes"/>
      <point x="440" y="478"/>
      <point x="438" y="480"/>
      <point x="438" y="486" type="curve" smooth="yes"/>
      <point x="438" y="970" type="line"/>
      <point x="364" y="970" type="line" smooth="yes"/>
      <point x="360" y="970"/>
      <point x="358" y="972"/>
      <point x="358" y="978" type="curve" smooth="yes"/>
      <point x="358" y="1030" type="line" smooth="yes"/>
      <point x="358" y="1036"/>
      <point x="360" y="1040"/>
      <point x="364" y="1040" type="curve" smooth="yes"/>
      <point x="500" y="1040" type="line" smooth="yes"/>
      <point x="506" y="1040"/>
      <point x="508" y="1036"/>
      <point x="508" y="1030" type="curve" smooth="yes"/>
    </contour>
    <contour>
      <point x="764" y="468" type="curve" smooth="yes"/>
      <point x="668" y="468"/>
      <point x="592" y="546"/>
      <point x="592" y="640" type="curve" smooth="yes"/>
      <point x="592" y="698"/>
      <point x="618" y="748"/>
      <point x="666" y="780" type="curve"/>
      <point x="632" y="814"/>
      <point x="612" y="852"/>
      <point x="612" y="896" type="curve" smooth="yes"/>
      <point x="612" y="978"/>
      <point x="676" y="1046"/>
      <point x="764" y="1046" type="curve" smooth="yes"/>
      <point x="846" y="1046"/>
      <point x="914" y="978"/>
      <point x="914" y="896" type="curve" smooth="yes"/>
      <point x="914" y="850"/>
      <point x="898" y="814"/>
      <point x="862" y="780" type="curve"/>
      <point x="908" y="748"/>
      <point x="936" y="698"/>
      <point x="936" y="640" type="curve" smooth="yes"/>
      <point x="936" y="546"/>
      <point x="858" y="468"/>
    </contour>
    <contour>
      <point x="1246" y="978" type="line" smooth="yes"/>
      <point x="1246" y="972"/>
      <point x="1244" y="970"/>
      <point x="1238" y="970" type="curve" smooth="yes"/>
      <point x="1092" y="970" type="line"/>
      <point x="1092" y="802" type="line"/>
      <point x="1214" y="802" type="line" smooth="yes"/>
      <point x="1220" y="802"/>
      <point x="1220" y="798"/>
      <point x="1220" y="792" type="curve" smooth="yes"/>
      <point x="1220" y="742" type="line" smooth="yes"/>
      <point x="1220" y="736"/>
      <point x="1220" y="734"/>
      <point x="1214" y="734" type="curve" smooth="yes"/>
      <point x="1092" y="734" type="line"/>
      <point x="1092" y="486" type="line" smooth="yes"/>
      <point x="1092" y="480"/>
      <point x="1088" y="478"/>
      <point x="1080" y="478" type="curve" smooth="yes"/>
      <point x="1028" y="478" type="line" smooth="yes"/>
      <point x="1022" y="478"/>
      <point x="1020" y="480"/>
      <point x="1020" y="486" type="curve" smooth="yes"/>
      <point x="1020" y="1030" type="line" smooth="yes"/>
      <point x="1020" y="1036"/>
      <point x="1022" y="1040"/>
      <point x="1028" y="1040" type="curve" smooth="yes"/>
      <point x="1238" y="1040" type="line" smooth="yes"/>
      <point x="1244" y="1040"/>
      <point x="1246" y="1036"/>
      <point x="1246" y="1030" type="curve" smooth="yes"/>
    </contour>
    <contour>
      <point x="764" y="816" type="curve" smooth="yes"/>
      <point x="810" y="816"/>
      <point x="846" y="848"/>
      <point x="846" y="896" type="curve" smooth="yes"/>
      <point x="846" y="942"/>
      <point x="810" y="978"/>
      <point x="764" y="978" type="curve" smooth="yes"/>
      <point x="718" y="978"/>
      <point x="680" y="942"/>
      <point x="680" y="896" type="curve" smooth="yes"/>
      <point x="680" y="848"/>
      <point x="718" y="816"/>
    </contour>
  </outline>
</glyph>
<glyph name="espaciador" format="2">
  <advance width="452"/>
  <outline>
    <contour>
      <point x="412" y="1652" type="line"/>
      <point x="22" y="1652" type="line"/>
      <point x="22" y="-414" type="line"/>
      <point x="412" y="-414" type="line"/>
    </contour>
  </outline>
</glyph>
<glyph name="gravecomb.viet" format="2">
  <anchor x="172" y="1034" name="_top"/>
  <outline>
    <contour>
      <point x="264" y="1433" type="line"/>
      <point x="-10" y="1433" type="line"/>
      <point x="231" y="1155" type="line"/>
      <point x="420" y="1155" type="line"/>
    </contour>
  </outline>
</glyph>
<glyph name="l.ss01" format="2">
  <advance width="670"/>
  <anchor x="330" y="0" name="bottom"/>
  <anchor x="348" y="1492" name="top"/>
  <anchor x="830" y="1530" name="topright"/>
  <outline>
    <contour>
      <point x="140" y="0" type="line"/>
      <point x="530" y="0" type="line"/>
      <point x="530" y="1486" type="line"/>
      <point x="140" y="1486" type="line"/>
    </contour>
  </outline>
</glyph>
<glyph name="one.tf" format="2">
  <advance width="1400"/>
  <outline>
    <contour>
      <point x="170" y="320" type="line"/>
      <point x="170" y="0" type="line"/>
      <point x="1230" y="0" type="line"/>
      <point x="1230" y="320" type="line"/>
    </contour>
    <contour>
      <point x="544" y="0" type="line"/>
      <point x="918" y="0" type="line"/>
      <point x="918" y="1446" type="line"/>
      <point x="782" y="1446" type="line"/>
      <point x="190" y="1282" type="line"/>
      <point x="190" y="954" type="line"/>
      <point x="544" y="1032" type="line"/>
    </contour>
  </outline>
</glyph>
